STARTFONT 2.1
FONT -Fondu-Geneva-Medium-R-Normal--14-130-75-75-P-81-MacRoman-1
SIZE 13 75 75
FONTBOUNDINGBOX 13 18 0 -4
COMMENT Created by Fondu from a mac NFNT/FONT resource
STARTPROPERTIES 17
FOUNDRY "Fondu"
FAMILY_NAME "Geneva"
WEIGHT_NAME "Medium"
SLANT "R"
SETWIDTH_NAME "Normal"
ADD_STYLE_NAME ""
PIXEL_SIZE 14
POINT_SIZE 130
RESOLUTION_X 75
RESOLUTION_Y 75
SPACING "P"
AVERAGE_WIDTH 81
CHARSET_REGISTRY "MacRoman"
CHARSET_ENCODING "1"
FONT_ASCENT 14
FONT_DESCENT 4
FACE_NAME "Geneva"
ENDPROPERTIES
CHARS 228
STARTCHAR eth
ENCODING 2
SWIDTH 500 0
DWIDTH 0 0
BBX 0 0 0 -4
BITMAP
ENDCHAR
STARTCHAR Lslash
ENCODING 3
SWIDTH 500 0
DWIDTH 0 0
BBX 0 0 0 -4
BITMAP
ENDCHAR
STARTCHAR lslash
ENCODING 4
SWIDTH 500 0
DWIDTH 0 0
BBX 0 0 0 -4
BITMAP
ENDCHAR
STARTCHAR Scaron
ENCODING 5
SWIDTH 500 0
DWIDTH 0 0
BBX 0 0 0 -4
BITMAP
ENDCHAR
STARTCHAR space
ENCODING 32
SWIDTH 333 0
DWIDTH 4 0
BBX 0 0 4 -4
BITMAP
ENDCHAR
STARTCHAR exclam
ENCODING 33
SWIDTH 303 0
DWIDTH 4 0
BBX 1 10 2 0
BITMAP
80
80
80
80
80
80
80
80
00
80
ENDCHAR
STARTCHAR quotedbl
ENCODING 34
SWIDTH 500 0
DWIDTH 6 0
BBX 4 3 1 7
BITMAP
90
90
90
ENDCHAR
STARTCHAR numbersign
ENCODING 35
SWIDTH 667 0
DWIDTH 9 0
BBX 7 8 1 3
BITMAP
14
14
7E
28
28
FC
50
50
ENDCHAR
STARTCHAR dollar
ENCODING 36
SWIDTH 667 0
DWIDTH 7 0
BBX 5 12 1 -1
BITMAP
20
70
A8
A0
A0
60
30
28
28
A8
70
20
ENDCHAR
STARTCHAR percent
ENCODING 37
SWIDTH 905 0
DWIDTH 11 0
BBX 9 11 1 0
BITMAP
6F80
9080
9100
9200
6400
0800
1300
2480
4480
8480
8300
ENDCHAR
STARTCHAR ampersand
ENCODING 38
SWIDTH 727 0
DWIDTH 11 0
BBX 9 11 1 0
BITMAP
3000
4800
4800
5000
2000
5000
8900
8500
8200
4500
3880
ENDCHAR
STARTCHAR quotesingle
ENCODING 39
SWIDTH 303 0
DWIDTH 3 0
BBX 1 3 1 8
BITMAP
80
80
80
ENDCHAR
STARTCHAR parenleft
ENCODING 40
SWIDTH 447 0
DWIDTH 6 0
BBX 3 13 1 -1
BITMAP
20
40
40
80
80
80
80
80
80
80
40
40
20
ENDCHAR
STARTCHAR parenright
ENCODING 41
SWIDTH 447 0
DWIDTH 6 0
BBX 3 13 2 -1
BITMAP
80
40
40
20
20
20
20
20
20
20
40
40
80
ENDCHAR
STARTCHAR asterisk
ENCODING 42
SWIDTH 508 0
DWIDTH 9 0
BBX 7 7 1 4
BITMAP
10
92
54
38
10
28
44
ENDCHAR
STARTCHAR plus
ENCODING 43
SWIDTH 667 0
DWIDTH 9 0
BBX 7 7 1 2
BITMAP
10
10
10
FE
10
10
10
ENDCHAR
STARTCHAR comma
ENCODING 44
SWIDTH 303 0
DWIDTH 4 0
BBX 2 4 1 -3
BITMAP
40
40
40
80
ENDCHAR
STARTCHAR hyphen
ENCODING 45
SWIDTH 379 0
DWIDTH 8 0
BBX 6 1 1 5
BITMAP
FC
ENDCHAR
STARTCHAR period
ENCODING 46
SWIDTH 303 0
DWIDTH 3 0
BBX 1 1 1 0
BITMAP
80
ENDCHAR
STARTCHAR slash
ENCODING 47
SWIDTH 538 0
DWIDTH 7 0
BBX 5 10 1 0
BITMAP
08
08
10
10
20
20
40
40
80
80
ENDCHAR
STARTCHAR zero
ENCODING 48
SWIDTH 667 0
DWIDTH 9 0
BBX 7 11 1 0
BITMAP
38
44
82
82
82
82
82
82
82
44
38
ENDCHAR
STARTCHAR one
ENCODING 49
SWIDTH 667 0
DWIDTH 9 0
BBX 2 11 3 0
BITMAP
40
C0
40
40
40
40
40
40
40
40
40
ENDCHAR
STARTCHAR two
ENCODING 50
SWIDTH 667 0
DWIDTH 9 0
BBX 7 11 1 0
BITMAP
38
44
82
02
02
04
08
10
20
40
FE
ENDCHAR
STARTCHAR three
ENCODING 51
SWIDTH 667 0
DWIDTH 9 0
BBX 7 11 1 0
BITMAP
FE
04
08
10
38
04
02
02
02
84
78
ENDCHAR
STARTCHAR four
ENCODING 52
SWIDTH 667 0
DWIDTH 9 0
BBX 7 11 1 0
BITMAP
04
0C
14
24
44
84
FE
04
04
04
04
ENDCHAR
STARTCHAR five
ENCODING 53
SWIDTH 667 0
DWIDTH 9 0
BBX 7 11 1 0
BITMAP
FE
80
80
80
F8
04
02
02
02
84
78
ENDCHAR
STARTCHAR six
ENCODING 54
SWIDTH 667 0
DWIDTH 9 0
BBX 7 11 1 0
BITMAP
38
40
80
B8
C4
82
82
82
82
44
38
ENDCHAR
STARTCHAR seven
ENCODING 55
SWIDTH 667 0
DWIDTH 9 0
BBX 7 11 1 0
BITMAP
FE
02
02
04
04
08
08
10
10
10
10
ENDCHAR
STARTCHAR eight
ENCODING 56
SWIDTH 667 0
DWIDTH 9 0
BBX 7 11 1 0
BITMAP
38
44
44
44
38
44
82
82
82
44
38
ENDCHAR
STARTCHAR nine
ENCODING 57
SWIDTH 667 0
DWIDTH 9 0
BBX 7 11 1 0
BITMAP
38
44
82
82
82
82
46
3A
02
04
38
ENDCHAR
STARTCHAR colon
ENCODING 58
SWIDTH 303 0
DWIDTH 3 0
BBX 1 7 1 0
BITMAP
80
00
00
00
00
00
80
ENDCHAR
STARTCHAR semicolon
ENCODING 59
SWIDTH 303 0
DWIDTH 4 0
BBX 2 10 1 -3
BITMAP
40
00
00
00
00
00
40
40
40
80
ENDCHAR
STARTCHAR less
ENCODING 60
SWIDTH 667 0
DWIDTH 7 0
BBX 4 7 1 2
BITMAP
10
20
40
80
40
20
10
ENDCHAR
STARTCHAR equal
ENCODING 61
SWIDTH 667 0
DWIDTH 11 0
BBX 7 4 2 3
BITMAP
FE
00
00
FE
ENDCHAR
STARTCHAR greater
ENCODING 62
SWIDTH 667 0
DWIDTH 7 0
BBX 4 7 1 2
BITMAP
80
40
20
10
20
40
80
ENDCHAR
STARTCHAR question
ENCODING 63
SWIDTH 568 0
DWIDTH 8 0
BBX 6 11 1 0
BITMAP
78
84
04
04
08
10
20
20
20
00
20
ENDCHAR
STARTCHAR at
ENCODING 64
SWIDTH 871 0
DWIDTH 12 0
BBX 10 10 1 0
BITMAP
3F00
4080
8E40
9240
9240
9240
9240
8D80
4000
3C00
ENDCHAR
STARTCHAR A
ENCODING 65
SWIDTH 727 0
DWIDTH 11 0
BBX 9 11 1 0
BITMAP
0800
0800
0800
1400
1400
2200
2200
7F00
4100
8080
8080
ENDCHAR
STARTCHAR B
ENCODING 66
SWIDTH 636 0
DWIDTH 9 0
BBX 7 11 1 0
BITMAP
F8
84
84
84
F8
84
82
82
82
84
F8
ENDCHAR
STARTCHAR C
ENCODING 67
SWIDTH 651 0
DWIDTH 9 0
BBX 7 11 1 0
BITMAP
3C
42
80
80
80
80
80
80
80
42
3C
ENDCHAR
STARTCHAR D
ENCODING 68
SWIDTH 701 0
DWIDTH 9 0
BBX 7 11 1 0
BITMAP
F8
84
82
82
82
82
82
82
82
84
F8
ENDCHAR
STARTCHAR E
ENCODING 69
SWIDTH 576 0
DWIDTH 8 0
BBX 6 11 1 0
BITMAP
FC
80
80
80
80
F8
80
80
80
80
FC
ENDCHAR
STARTCHAR F
ENCODING 70
SWIDTH 553 0
DWIDTH 8 0
BBX 6 11 1 0
BITMAP
FC
80
80
80
80
F8
80
80
80
80
80
ENDCHAR
STARTCHAR G
ENCODING 71
SWIDTH 674 0
DWIDTH 10 0
BBX 8 11 1 0
BITMAP
3C
42
80
80
80
8F
81
81
81
42
3C
ENDCHAR
STARTCHAR H
ENCODING 72
SWIDTH 689 0
DWIDTH 9 0
BBX 7 11 1 0
BITMAP
82
82
82
82
82
FE
82
82
82
82
82
ENDCHAR
STARTCHAR I
ENCODING 73
SWIDTH 242 0
DWIDTH 5 0
BBX 1 11 2 0
BITMAP
80
80
80
80
80
80
80
80
80
80
80
ENDCHAR
STARTCHAR J
ENCODING 74
SWIDTH 492 0
DWIDTH 8 0
BBX 7 11 0 0
BITMAP
02
02
02
02
02
02
02
82
82
44
38
ENDCHAR
STARTCHAR K
ENCODING 75
SWIDTH 663 0
DWIDTH 9 0
BBX 7 11 1 0
BITMAP
82
84
88
90
A0
C0
A0
90
88
84
82
ENDCHAR
STARTCHAR L
ENCODING 76
SWIDTH 583 0
DWIDTH 8 0
BBX 6 11 1 0
BITMAP
80
80
80
80
80
80
80
80
80
80
FC
ENDCHAR
STARTCHAR M
ENCODING 77
SWIDTH 788 0
DWIDTH 11 0
BBX 9 11 1 0
BITMAP
8080
C180
A280
9480
8880
8080
8080
8080
8080
8080
8080
ENDCHAR
STARTCHAR N
ENCODING 78
SWIDTH 708 0
DWIDTH 10 0
BBX 8 11 1 0
BITMAP
C1
C1
A1
A1
91
89
89
85
83
83
81
ENDCHAR
STARTCHAR O
ENCODING 79
SWIDTH 735 0
DWIDTH 10 0
BBX 8 11 1 0
BITMAP
3C
42
81
81
81
81
81
81
81
42
3C
ENDCHAR
STARTCHAR P
ENCODING 80
SWIDTH 583 0
DWIDTH 9 0
BBX 7 11 1 0
BITMAP
F8
84
82
82
82
84
F8
80
80
80
80
ENDCHAR
STARTCHAR Q
ENCODING 81
SWIDTH 735 0
DWIDTH 10 0
BBX 8 13 1 -2
BITMAP
3C
42
81
81
81
81
81
81
81
42
3C
08
07
ENDCHAR
STARTCHAR R
ENCODING 82
SWIDTH 606 0
DWIDTH 10 0
BBX 7 11 1 0
BITMAP
F8
84
82
82
84
F8
88
84
84
82
82
ENDCHAR
STARTCHAR S
ENCODING 83
SWIDTH 606 0
DWIDTH 9 0
BBX 7 11 1 0
BITMAP
38
44
82
80
40
38
04
02
82
44
38
ENDCHAR
STARTCHAR T
ENCODING 84
SWIDTH 640 0
DWIDTH 9 0
BBX 7 11 1 0
BITMAP
FE
10
10
10
10
10
10
10
10
10
10
ENDCHAR
STARTCHAR U
ENCODING 85
SWIDTH 667 0
DWIDTH 10 0
BBX 8 11 1 0
BITMAP
81
81
81
81
81
81
81
81
81
42
3C
ENDCHAR
STARTCHAR V
ENCODING 86
SWIDTH 727 0
DWIDTH 11 0
BBX 9 11 1 0
BITMAP
8080
8080
4100
4100
2200
2200
1400
1400
0800
0800
0800
ENDCHAR
STARTCHAR W
ENCODING 87
SWIDTH 947 0
DWIDTH 13 0
BBX 11 11 1 0
BITMAP
8020
8020
4440
4440
4440
2A80
2A80
2A80
1100
1100
1100
ENDCHAR
STARTCHAR X
ENCODING 88
SWIDTH 610 0
DWIDTH 9 0
BBX 7 11 1 0
BITMAP
82
82
44
44
28
10
28
44
44
82
82
ENDCHAR
STARTCHAR Y
ENCODING 89
SWIDTH 610 0
DWIDTH 9 0
BBX 7 11 1 0
BITMAP
82
82
44
44
28
28
10
10
10
10
10
ENDCHAR
STARTCHAR Z
ENCODING 90
SWIDTH 576 0
DWIDTH 9 0
BBX 7 11 1 0
BITMAP
FE
02
04
08
08
10
20
20
40
80
FE
ENDCHAR
STARTCHAR bracketleft
ENCODING 91
SWIDTH 447 0
DWIDTH 5 0
BBX 3 13 1 -1
BITMAP
E0
80
80
80
80
80
80
80
80
80
80
80
E0
ENDCHAR
STARTCHAR backslash
ENCODING 92
SWIDTH 538 0
DWIDTH 7 0
BBX 5 10 1 0
BITMAP
80
80
40
40
20
20
10
10
08
08
ENDCHAR
STARTCHAR bracketright
ENCODING 93
SWIDTH 447 0
DWIDTH 5 0
BBX 3 13 1 -1
BITMAP
E0
20
20
20
20
20
20
20
20
20
20
20
E0
ENDCHAR
STARTCHAR asciicircum
ENCODING 94
SWIDTH 667 0
DWIDTH 7 0
BBX 5 6 1 4
BITMAP
20
20
50
50
88
88
ENDCHAR
STARTCHAR underscore
ENCODING 95
SWIDTH 667 0
DWIDTH 9 0
BBX 9 1 0 0
BITMAP
FF80
ENDCHAR
STARTCHAR grave
ENCODING 96
SWIDTH 591 0
DWIDTH 5 0
BBX 3 3 1 9
BITMAP
80
40
20
ENDCHAR
STARTCHAR a
ENCODING 97
SWIDTH 553 0
DWIDTH 8 0
BBX 6 8 1 0
BITMAP
78
84
04
7C
84
84
8C
74
ENDCHAR
STARTCHAR b
ENCODING 98
SWIDTH 610 0
DWIDTH 9 0
BBX 7 11 1 0
BITMAP
80
80
80
B8
C4
82
82
82
82
C4
B8
ENDCHAR
STARTCHAR c
ENCODING 99
SWIDTH 545 0
DWIDTH 8 0
BBX 6 8 1 0
BITMAP
38
44
80
80
80
80
44
38
ENDCHAR
STARTCHAR d
ENCODING 100
SWIDTH 602 0
DWIDTH 9 0
BBX 7 11 1 0
BITMAP
02
02
02
3A
46
82
82
82
82
46
3A
ENDCHAR
STARTCHAR e
ENCODING 101
SWIDTH 576 0
DWIDTH 9 0
BBX 7 8 1 0
BITMAP
38
44
82
FE
80
80
44
38
ENDCHAR
STARTCHAR f
ENCODING 102
SWIDTH 390 0
DWIDTH 6 0
BBX 4 11 1 0
BITMAP
30
40
40
F0
40
40
40
40
40
40
40
ENDCHAR
STARTCHAR g
ENCODING 103
SWIDTH 610 0
DWIDTH 9 0
BBX 7 11 1 -3
BITMAP
3A
46
82
82
82
82
46
3A
02
84
78
ENDCHAR
STARTCHAR h
ENCODING 104
SWIDTH 583 0
DWIDTH 8 0
BBX 6 11 1 0
BITMAP
80
80
80
B8
C4
84
84
84
84
84
84
ENDCHAR
STARTCHAR i
ENCODING 105
SWIDTH 235 0
DWIDTH 5 0
BBX 1 11 2 0
BITMAP
80
80
00
80
80
80
80
80
80
80
80
ENDCHAR
STARTCHAR j
ENCODING 106
SWIDTH 276 0
DWIDTH 5 0
BBX 3 14 0 -3
BITMAP
20
20
00
20
20
20
20
20
20
20
20
20
20
C0
ENDCHAR
STARTCHAR k
ENCODING 107
SWIDTH 538 0
DWIDTH 9 0
BBX 7 11 1 0
BITMAP
80
80
80
84
88
90
A0
D0
88
84
82
ENDCHAR
STARTCHAR l
ENCODING 108
SWIDTH 235 0
DWIDTH 5 0
BBX 2 11 1 0
BITMAP
C0
40
40
40
40
40
40
40
40
40
40
ENDCHAR
STARTCHAR m
ENCODING 109
SWIDTH 894 0
DWIDTH 13 0
BBX 11 8 1 0
BITMAP
B9C0
C620
8420
8420
8420
8420
8420
8420
ENDCHAR
STARTCHAR n
ENCODING 110
SWIDTH 583 0
DWIDTH 8 0
BBX 6 8 1 0
BITMAP
B8
C4
84
84
84
84
84
84
ENDCHAR
STARTCHAR o
ENCODING 111
SWIDTH 606 0
DWIDTH 9 0
BBX 7 8 1 0
BITMAP
38
44
82
82
82
82
44
38
ENDCHAR
STARTCHAR p
ENCODING 112
SWIDTH 602 0
DWIDTH 9 0
BBX 7 11 1 -3
BITMAP
B8
C4
82
82
82
82
C4
B8
80
80
80
ENDCHAR
STARTCHAR q
ENCODING 113
SWIDTH 602 0
DWIDTH 9 0
BBX 7 11 1 -3
BITMAP
3A
46
82
82
82
82
46
3A
02
02
02
ENDCHAR
STARTCHAR r
ENCODING 114
SWIDTH 386 0
DWIDTH 7 0
BBX 6 8 1 0
BITMAP
B8
C4
80
80
80
80
80
80
ENDCHAR
STARTCHAR s
ENCODING 115
SWIDTH 509 0
DWIDTH 8 0
BBX 6 8 1 0
BITMAP
78
84
80
78
04
04
84
78
ENDCHAR
STARTCHAR t
ENCODING 116
SWIDTH 443 0
DWIDTH 7 0
BBX 5 11 1 0
BITMAP
40
40
40
F0
40
40
40
40
40
48
30
ENDCHAR
STARTCHAR u
ENCODING 117
SWIDTH 583 0
DWIDTH 8 0
BBX 6 8 1 0
BITMAP
84
84
84
84
84
84
8C
74
ENDCHAR
STARTCHAR v
ENCODING 118
SWIDTH 564 0
DWIDTH 9 0
BBX 7 8 1 0
BITMAP
82
82
44
44
28
28
10
10
ENDCHAR
STARTCHAR w
ENCODING 119
SWIDTH 780 0
DWIDTH 11 0
BBX 9 8 1 0
BITMAP
8880
8880
4900
5500
5500
2200
2200
2200
ENDCHAR
STARTCHAR x
ENCODING 120
SWIDTH 530 0
DWIDTH 9 0
BBX 7 8 1 0
BITMAP
82
44
28
10
10
28
44
82
ENDCHAR
STARTCHAR y
ENCODING 121
SWIDTH 572 0
DWIDTH 9 0
BBX 8 12 0 -4
BITMAP
41
41
22
22
14
14
08
08
10
10
20
C0
ENDCHAR
STARTCHAR z
ENCODING 122
SWIDTH 553 0
DWIDTH 8 0
BBX 6 8 1 0
BITMAP
FC
04
08
10
20
40
80
FC
ENDCHAR
STARTCHAR braceleft
ENCODING 123
SWIDTH 451 0
DWIDTH 5 0
BBX 3 12 1 -1
BITMAP
20
40
40
40
40
80
40
40
40
40
40
20
ENDCHAR
STARTCHAR bar
ENCODING 124
SWIDTH 246 0
DWIDTH 3 0
BBX 1 12 1 -1
BITMAP
80
80
80
80
80
80
80
80
80
80
80
80
ENDCHAR
STARTCHAR braceright
ENCODING 125
SWIDTH 451 0
DWIDTH 5 0
BBX 3 12 1 -1
BITMAP
80
40
40
40
40
20
40
40
40
40
40
80
ENDCHAR
STARTCHAR asciitilde
ENCODING 126
SWIDTH 667 0
DWIDTH 9 0
BBX 7 2 1 8
BITMAP
72
8C
ENDCHAR
STARTCHAR char007f
ENCODING 127
SWIDTH 500 0
DWIDTH 0 0
BBX 0 0 0 -4
BITMAP
ENDCHAR
STARTCHAR Adieresis
ENCODING 128
SWIDTH 727 0
DWIDTH 11 0
BBX 9 13 1 0
BITMAP
2200
0000
0800
0800
0800
1400
1400
2200
2200
7F00
4100
8080
8080
ENDCHAR
STARTCHAR Aring
ENCODING 129
SWIDTH 727 0
DWIDTH 11 0
BBX 9 14 1 0
BITMAP
0800
1400
0800
0800
0800
1400
1400
2200
2200
4100
7F00
8080
8080
8080
ENDCHAR
STARTCHAR Ccedilla
ENCODING 130
SWIDTH 651 0
DWIDTH 9 0
BBX 7 15 1 -4
BITMAP
3C
42
80
80
80
80
80
80
80
42
3C
18
08
08
10
ENDCHAR
STARTCHAR Eacute
ENCODING 131
SWIDTH 576 0
DWIDTH 8 0
BBX 6 14 1 0
BITMAP
10
20
00
FC
80
80
80
80
F8
80
80
80
80
FC
ENDCHAR
STARTCHAR Ntilde
ENCODING 132
SWIDTH 708 0
DWIDTH 10 0
BBX 8 14 1 0
BITMAP
32
4C
00
C1
C1
A1
A1
91
89
89
85
83
83
81
ENDCHAR
STARTCHAR Odieresis
ENCODING 133
SWIDTH 735 0
DWIDTH 10 0
BBX 8 13 1 0
BITMAP
24
00
3C
42
81
81
81
81
81
81
81
42
3C
ENDCHAR
STARTCHAR Udieresis
ENCODING 134
SWIDTH 667 0
DWIDTH 10 0
BBX 8 13 1 0
BITMAP
24
00
81
81
81
81
81
81
81
81
81
42
3C
ENDCHAR
STARTCHAR aacute
ENCODING 135
SWIDTH 553 0
DWIDTH 8 0
BBX 6 12 1 0
BITMAP
08
10
20
00
78
84
04
7C
84
84
8C
74
ENDCHAR
STARTCHAR agrave
ENCODING 136
SWIDTH 553 0
DWIDTH 8 0
BBX 6 12 1 0
BITMAP
40
20
10
00
78
84
04
7C
84
84
8C
74
ENDCHAR
STARTCHAR acircumflex
ENCODING 137
SWIDTH 553 0
DWIDTH 8 0
BBX 6 12 1 0
BITMAP
10
28
44
00
78
84
04
7C
84
84
8C
74
ENDCHAR
STARTCHAR adieresis
ENCODING 138
SWIDTH 553 0
DWIDTH 8 0
BBX 6 11 1 0
BITMAP
48
00
00
78
84
04
7C
84
84
8C
74
ENDCHAR
STARTCHAR atilde
ENCODING 139
SWIDTH 553 0
DWIDTH 8 0
BBX 6 11 1 0
BITMAP
64
98
00
78
84
04
7C
84
84
8C
74
ENDCHAR
STARTCHAR aring
ENCODING 140
SWIDTH 553 0
DWIDTH 8 0
BBX 6 12 1 0
BITMAP
10
28
10
00
78
84
04
7C
84
84
8C
74
ENDCHAR
STARTCHAR ccedilla
ENCODING 141
SWIDTH 545 0
DWIDTH 8 0
BBX 6 11 1 -3
BITMAP
38
44
80
80
80
80
44
38
30
10
20
ENDCHAR
STARTCHAR eacute
ENCODING 142
SWIDTH 576 0
DWIDTH 9 0
BBX 7 12 1 0
BITMAP
08
10
20
00
38
44
82
FE
80
80
42
3C
ENDCHAR
STARTCHAR egrave
ENCODING 143
SWIDTH 576 0
DWIDTH 9 0
BBX 7 12 1 0
BITMAP
20
10
08
00
38
44
82
FE
80
80
42
3C
ENDCHAR
STARTCHAR ecircumflex
ENCODING 144
SWIDTH 576 0
DWIDTH 9 0
BBX 7 12 1 0
BITMAP
10
28
44
00
38
44
82
FE
80
80
42
3C
ENDCHAR
STARTCHAR edieresis
ENCODING 145
SWIDTH 576 0
DWIDTH 9 0
BBX 7 11 1 0
BITMAP
44
00
00
38
44
82
FE
80
80
42
3C
ENDCHAR
STARTCHAR iacute
ENCODING 146
SWIDTH 235 0
DWIDTH 5 0
BBX 3 12 1 0
BITMAP
20
40
80
00
40
40
40
40
40
40
40
40
ENDCHAR
STARTCHAR igrave
ENCODING 147
SWIDTH 235 0
DWIDTH 5 0
BBX 3 12 1 0
BITMAP
80
40
20
00
40
40
40
40
40
40
40
40
ENDCHAR
STARTCHAR icircumflex
ENCODING 148
SWIDTH 235 0
DWIDTH 5 0
BBX 5 12 0 0
BITMAP
20
50
88
00
20
20
20
20
20
20
20
20
ENDCHAR
STARTCHAR idieresis
ENCODING 149
SWIDTH 235 0
DWIDTH 6 0
BBX 3 11 2 0
BITMAP
A0
00
00
40
40
40
40
40
40
40
40
ENDCHAR
STARTCHAR ntilde
ENCODING 150
SWIDTH 583 0
DWIDTH 8 0
BBX 6 11 1 0
BITMAP
64
98
00
B8
C4
84
84
84
84
84
84
ENDCHAR
STARTCHAR oacute
ENCODING 151
SWIDTH 606 0
DWIDTH 9 0
BBX 7 12 1 0
BITMAP
08
10
20
00
38
44
82
82
82
82
44
38
ENDCHAR
STARTCHAR ograve
ENCODING 152
SWIDTH 606 0
DWIDTH 9 0
BBX 7 12 1 0
BITMAP
20
10
08
00
38
44
82
82
82
82
44
38
ENDCHAR
STARTCHAR ocircumflex
ENCODING 153
SWIDTH 606 0
DWIDTH 9 0
BBX 7 12 1 0
BITMAP
10
28
44
00
38
44
82
82
82
82
44
38
ENDCHAR
STARTCHAR odieresis
ENCODING 154
SWIDTH 606 0
DWIDTH 9 0
BBX 7 11 1 0
BITMAP
44
00
00
38
44
82
82
82
82
44
38
ENDCHAR
STARTCHAR otilde
ENCODING 155
SWIDTH 606 0
DWIDTH 9 0
BBX 7 11 1 0
BITMAP
34
58
00
38
44
82
82
82
82
44
38
ENDCHAR
STARTCHAR uacute
ENCODING 156
SWIDTH 583 0
DWIDTH 8 0
BBX 6 12 1 0
BITMAP
08
10
20
00
84
84
84
84
84
84
8C
74
ENDCHAR
STARTCHAR ugrave
ENCODING 157
SWIDTH 583 0
DWIDTH 8 0
BBX 6 12 1 0
BITMAP
40
20
10
00
84
84
84
84
84
84
8C
74
ENDCHAR
STARTCHAR ucircumflex
ENCODING 158
SWIDTH 583 0
DWIDTH 8 0
BBX 6 12 1 0
BITMAP
20
50
88
00
84
84
84
84
84
84
8C
74
ENDCHAR
STARTCHAR udieresis
ENCODING 159
SWIDTH 583 0
DWIDTH 8 0
BBX 6 11 1 0
BITMAP
48
00
00
84
84
84
84
84
84
8C
74
ENDCHAR
STARTCHAR dagger
ENCODING 160
SWIDTH 667 0
DWIDTH 5 0
BBX 5 8 0 3
BITMAP
20
20
F8
20
20
20
20
20
ENDCHAR
STARTCHAR degree
ENCODING 161
SWIDTH 341 0
DWIDTH 6 0
BBX 4 4 1 7
BITMAP
60
90
90
60
ENDCHAR
STARTCHAR cent
ENCODING 162
SWIDTH 667 0
DWIDTH 8 0
BBX 6 11 1 0
BITMAP
10
38
54
90
90
90
90
90
54
38
10
ENDCHAR
STARTCHAR sterling
ENCODING 163
SWIDTH 667 0
DWIDTH 9 0
BBX 7 11 1 0
BITMAP
0E
10
10
10
10
7C
20
20
20
40
FE
ENDCHAR
STARTCHAR section
ENCODING 164
SWIDTH 667 0
DWIDTH 9 0
BBX 7 14 1 -3
BITMAP
3C
42
80
80
60
98
84
42
32
0C
02
02
84
78
ENDCHAR
STARTCHAR bullet
ENCODING 165
SWIDTH 667 0
DWIDTH 9 0
BBX 6 6 1 2
BITMAP
78
FC
FC
FC
FC
78
ENDCHAR
STARTCHAR paragraph
ENCODING 166
SWIDTH 667 0
DWIDTH 9 0
BBX 8 14 1 -3
BITMAP
7F
FA
FA
FA
7A
3A
0A
0A
0A
0A
0A
0A
0A
0A
ENDCHAR
STARTCHAR germandbls
ENCODING 167
SWIDTH 591 0
DWIDTH 10 0
BBX 7 11 2 0
BITMAP
78
84
84
88
90
90
88
84
82
82
9C
ENDCHAR
STARTCHAR registered
ENCODING 168
SWIDTH 879 0
DWIDTH 11 0
BBX 9 11 1 0
BITMAP
3E00
4100
BC80
A280
A280
BC80
A480
A280
A280
4100
3E00
ENDCHAR
STARTCHAR copyright
ENCODING 169
SWIDTH 879 0
DWIDTH 11 0
BBX 9 11 1 0
BITMAP
3E00
4100
9C80
A280
A080
A080
A080
A280
9C80
4100
3E00
ENDCHAR
STARTCHAR trademark
ENCODING 170
SWIDTH 758 0
DWIDTH 12 0
BBX 10 4 1 7
BITMAP
FC40
26C0
2540
2440
ENDCHAR
STARTCHAR acute
ENCODING 171
SWIDTH 591 0
DWIDTH 4 0
BBX 3 3 1 9
BITMAP
20
40
80
ENDCHAR
STARTCHAR dieresis
ENCODING 172
SWIDTH 591 0
DWIDTH 6 0
BBX 4 1 1 10
BITMAP
90
ENDCHAR
STARTCHAR notequal
ENCODING 173
SWIDTH 667 0
DWIDTH 9 0
BBX 7 8 1 1
BITMAP
08
08
FE
10
10
FE
20
20
ENDCHAR
STARTCHAR AE
ENCODING 174
SWIDTH 992 0
DWIDTH 13 0
BBX 11 11 1 0
BITMAP
0FE0
1400
1400
2400
2400
3F80
4400
4400
4400
8400
87E0
ENDCHAR
STARTCHAR Oslash
ENCODING 175
SWIDTH 735 0
DWIDTH 10 0
BBX 8 11 1 0
BITMAP
3D
42
85
85
89
89
91
A1
A1
42
BC
ENDCHAR
STARTCHAR infinity
ENCODING 176
SWIDTH 667 0
DWIDTH 15 0
BBX 13 5 1 3
BITMAP
78F0
8508
8208
8508
78F0
ENDCHAR
STARTCHAR plusminus
ENCODING 177
SWIDTH 667 0
DWIDTH 9 0
BBX 7 9 1 0
BITMAP
10
10
10
FE
10
10
10
00
FE
ENDCHAR
STARTCHAR lessequal
ENCODING 178
SWIDTH 667 0
DWIDTH 7 0
BBX 6 8 0 0
BITMAP
0C
30
C0
30
0C
00
00
FC
ENDCHAR
STARTCHAR greaterequal
ENCODING 179
SWIDTH 667 0
DWIDTH 7 0
BBX 6 8 0 0
BITMAP
C0
30
0C
30
C0
00
00
FC
ENDCHAR
STARTCHAR yen
ENCODING 180
SWIDTH 667 0
DWIDTH 9 0
BBX 7 11 1 0
BITMAP
82
82
44
44
28
FE
10
FE
10
10
10
ENDCHAR
STARTCHAR mu
ENCODING 181
SWIDTH 591 0
DWIDTH 10 0
BBX 9 11 0 -3
BITMAP
1080
1080
2100
2100
2100
4200
6600
5900
8000
8000
8000
ENDCHAR
STARTCHAR partialdiff
ENCODING 182
SWIDTH 651 0
DWIDTH 8 0
BBX 6 11 1 0
BITMAP
30
08
04
1C
24
44
84
84
84
88
70
ENDCHAR
STARTCHAR summation
ENCODING 183
SWIDTH 606 0
DWIDTH 10 0
BBX 8 13 1 -2
BITMAP
FF
80
40
20
10
08
04
08
10
20
40
80
FF
ENDCHAR
STARTCHAR product
ENCODING 184
SWIDTH 803 0
DWIDTH 10 0
BBX 8 13 1 -2
BITMAP
FF
42
42
42
42
42
42
42
42
42
42
42
42
ENDCHAR
STARTCHAR pi
ENCODING 185
SWIDTH 689 0
DWIDTH 11 0
BBX 9 8 1 0
BITMAP
FF80
2200
2200
2200
2200
2200
2200
2100
ENDCHAR
STARTCHAR integral
ENCODING 186
SWIDTH 523 0
DWIDTH 5 0
BBX 5 13 0 -2
BITMAP
10
28
20
20
20
20
20
20
20
20
20
A0
40
ENDCHAR
STARTCHAR ordfeminine
ENCODING 187
SWIDTH 333 0
DWIDTH 7 0
BBX 5 6 1 5
BITMAP
70
88
78
88
98
68
ENDCHAR
STARTCHAR ordmasculine
ENCODING 188
SWIDTH 371 0
DWIDTH 7 0
BBX 5 6 1 5
BITMAP
70
88
88
88
88
70
ENDCHAR
STARTCHAR Omega
ENCODING 189
SWIDTH 803 0
DWIDTH 10 0
BBX 8 11 1 0
BITMAP
3C
42
81
81
81
81
81
42
24
24
E7
ENDCHAR
STARTCHAR ae
ENCODING 190
SWIDTH 928 0
DWIDTH 14 0
BBX 12 8 1 0
BITMAP
79C0
8620
0410
7FF0
8400
8400
8A10
71E0
ENDCHAR
STARTCHAR oslash
ENCODING 191
SWIDTH 606 0
DWIDTH 8 0
BBX 8 8 0 0
BITMAP
3D
42
46
4A
52
62
42
BC
ENDCHAR
STARTCHAR questiondown
ENCODING 192
SWIDTH 568 0
DWIDTH 9 0
BBX 6 11 1 0
BITMAP
10
00
10
10
10
20
40
80
80
84
78
ENDCHAR
STARTCHAR exclamdown
ENCODING 193
SWIDTH 303 0
DWIDTH 4 0
BBX 1 11 1 0
BITMAP
80
00
80
80
80
80
80
80
80
80
80
ENDCHAR
STARTCHAR logicalnot
ENCODING 194
SWIDTH 667 0
DWIDTH 8 0
BBX 6 3 1 3
BITMAP
FC
04
04
ENDCHAR
STARTCHAR radical
ENCODING 195
SWIDTH 898 0
DWIDTH 12 0
BBX 11 14 0 -3
BITMAP
0020
0020
0040
0040
0080
0080
0100
C100
2200
2200
1400
1400
0800
0800
ENDCHAR
STARTCHAR florin
ENCODING 196
SWIDTH 667 0
DWIDTH 5 0
BBX 6 14 0 -3
BITMAP
0C
10
10
10
20
78
20
20
40
40
40
80
80
80
ENDCHAR
STARTCHAR approxequal
ENCODING 197
SWIDTH 667 0
DWIDTH 9 0
BBX 7 4 1 3
BITMAP
72
8C
62
9C
ENDCHAR
STARTCHAR Delta
ENCODING 198
SWIDTH 758 0
DWIDTH 11 0
BBX 9 10 1 0
BITMAP
0800
0800
1400
1400
2200
2200
4100
4100
8080
FF80
ENDCHAR
STARTCHAR guillemotleft
ENCODING 199
SWIDTH 534 0
DWIDTH 9 0
BBX 7 7 1 0
BITMAP
12
24
48
90
48
24
12
ENDCHAR
STARTCHAR guillemotright
ENCODING 200
SWIDTH 534 0
DWIDTH 9 0
BBX 7 7 1 0
BITMAP
90
48
24
12
24
48
90
ENDCHAR
STARTCHAR ellipsis
ENCODING 201
SWIDTH 1030 0
DWIDTH 10 0
BBX 7 1 2 0
BITMAP
92
ENDCHAR
STARTCHAR nbspace
ENCODING 202
SWIDTH 667 0
DWIDTH 9 0
BBX 0 0 9 -4
BITMAP
ENDCHAR
STARTCHAR Agrave
ENCODING 203
SWIDTH 727 0
DWIDTH 11 0
BBX 9 14 1 0
BITMAP
0800
0400
0000
0800
0800
0800
1400
1400
2200
2200
4100
7F00
8080
8080
ENDCHAR
STARTCHAR Atilde
ENCODING 204
SWIDTH 727 0
DWIDTH 11 0
BBX 9 14 1 0
BITMAP
1900
2600
0000
0800
0800
0800
1400
1400
2200
2200
4100
7F00
8080
8080
ENDCHAR
STARTCHAR Otilde
ENCODING 205
SWIDTH 735 0
DWIDTH 10 0
BBX 8 14 1 0
BITMAP
32
4C
00
3C
42
81
81
81
81
81
81
81
42
3C
ENDCHAR
STARTCHAR OE
ENCODING 206
SWIDTH 1091 0
DWIDTH 14 0
BBX 12 11 1 0
BITMAP
3BF0
4600
8200
8200
8200
83E0
8200
8200
8200
4600
3BF0
ENDCHAR
STARTCHAR oe
ENCODING 207
SWIDTH 996 0
DWIDTH 14 0
BBX 12 8 1 0
BITMAP
79C0
8620
8410
87F0
8400
8400
8620
79C0
ENDCHAR
STARTCHAR endash
ENCODING 208
SWIDTH 515 0
DWIDTH 7 0
BBX 5 1 1 4
BITMAP
F8
ENDCHAR
STARTCHAR emdash
ENCODING 209
SWIDTH 1030 0
DWIDTH 10 0
BBX 8 1 1 4
BITMAP
FF
ENDCHAR
STARTCHAR quotedblleft
ENCODING 210
SWIDTH 492 0
DWIDTH 8 0
BBX 5 4 1 7
BITMAP
48
90
90
90
ENDCHAR
STARTCHAR quotedblright
ENCODING 211
SWIDTH 492 0
DWIDTH 8 0
BBX 5 4 2 7
BITMAP
48
48
48
90
ENDCHAR
STARTCHAR quoteleft
ENCODING 212
SWIDTH 303 0
DWIDTH 4 0
BBX 2 4 1 7
BITMAP
40
80
80
80
ENDCHAR
STARTCHAR quoteright
ENCODING 213
SWIDTH 303 0
DWIDTH 4 0
BBX 2 4 1 7
BITMAP
40
40
40
80
ENDCHAR
STARTCHAR divide
ENCODING 214
SWIDTH 667 0
DWIDTH 9 0
BBX 7 5 1 3
BITMAP
10
00
FE
00
10
ENDCHAR
STARTCHAR lozenge
ENCODING 215
SWIDTH 667 0
DWIDTH 11 0
BBX 9 9 1 0
BITMAP
0800
1400
2200
4100
8080
4100
2200
1400
0800
ENDCHAR
STARTCHAR ydieresis
ENCODING 216
SWIDTH 572 0
DWIDTH 9 0
BBX 8 15 0 -4
BITMAP
22
00
00
41
41
22
22
14
14
08
08
10
10
20
C0
ENDCHAR
STARTCHAR Ydieresis
ENCODING 217
SWIDTH 610 0
DWIDTH 9 0
BBX 7 13 1 0
BITMAP
44
00
82
82
44
44
28
28
10
10
10
10
10
ENDCHAR
STARTCHAR fraction
ENCODING 218
SWIDTH 102 0
DWIDTH 7 0
BBX 6 12 1 -1
BITMAP
04
04
08
08
10
10
20
20
40
40
80
80
ENDCHAR
STARTCHAR currency
ENCODING 219
SWIDTH 744 0
DWIDTH 10 0
BBX 9 9 1 -1
BITMAP
1F00
2080
4000
FF00
4000
FE00
4000
3080
0F00
ENDCHAR
STARTCHAR guilsinglleft
ENCODING 220
SWIDTH 322 0
DWIDTH 7 0
BBX 4 7 1 1
BITMAP
10
20
40
80
40
20
10
ENDCHAR
STARTCHAR guilsinglright
ENCODING 221
SWIDTH 322 0
DWIDTH 7 0
BBX 4 7 2 1
BITMAP
80
40
20
10
20
40
80
ENDCHAR
STARTCHAR fi
ENCODING 222
SWIDTH 599 0
DWIDTH 8 0
BBX 6 11 1 0
BITMAP
30
40
40
FC
44
44
44
44
44
44
44
ENDCHAR
STARTCHAR fl
ENCODING 223
SWIDTH 599 0
DWIDTH 8 0
BBX 6 11 1 0
BITMAP
3C
44
44
F4
44
44
44
44
44
44
44
ENDCHAR
STARTCHAR daggerdbl
ENCODING 224
SWIDTH 667 0
DWIDTH 5 0
BBX 5 10 0 1
BITMAP
20
20
F8
20
20
20
20
F8
20
20
ENDCHAR
STARTCHAR periodcentered
ENCODING 225
SWIDTH 667 0
DWIDTH 3 0
BBX 1 2 1 4
BITMAP
80
80
ENDCHAR
STARTCHAR quotesinglbase
ENCODING 226
SWIDTH 303 0
DWIDTH 4 0
BBX 2 4 1 -2
BITMAP
40
40
40
80
ENDCHAR
STARTCHAR quotedblbase
ENCODING 227
SWIDTH 492 0
DWIDTH 8 0
BBX 5 4 2 -2
BITMAP
48
48
48
90
ENDCHAR
STARTCHAR perthousand
ENCODING 228
SWIDTH 1311 0
DWIDTH 14 0
BBX 13 11 1 0
BITMAP
6080
9080
9100
9200
6400
0800
1330
24C8
44C8
84C8
8330
ENDCHAR
STARTCHAR Acircumflex
ENCODING 229
SWIDTH 727 0
DWIDTH 11 0
BBX 9 14 1 0
BITMAP
0800
1400
0000
0800
0800
1400
1400
2200
2200
4100
7F00
8080
8080
8080
ENDCHAR
STARTCHAR Ecircumflex
ENCODING 230
SWIDTH 576 0
DWIDTH 8 0
BBX 6 14 1 0
BITMAP
20
50
00
FC
80
80
80
80
F8
80
80
80
80
FC
ENDCHAR
STARTCHAR Aacute
ENCODING 231
SWIDTH 727 0
DWIDTH 11 0
BBX 9 14 1 0
BITMAP
0400
0800
0000
0800
0800
1400
1400
2200
2200
4100
7F00
8080
8080
8080
ENDCHAR
STARTCHAR Edieresis
ENCODING 232
SWIDTH 576 0
DWIDTH 8 0
BBX 6 13 1 0
BITMAP
48
00
FC
80
80
80
80
F8
80
80
80
80
FC
ENDCHAR
STARTCHAR Egrave
ENCODING 233
SWIDTH 576 0
DWIDTH 8 0
BBX 6 14 1 0
BITMAP
20
10
00
FC
80
80
80
80
F8
80
80
80
80
FC
ENDCHAR
STARTCHAR Iacute
ENCODING 234
SWIDTH 242 0
DWIDTH 5 0
BBX 2 14 2 0
BITMAP
40
80
00
80
80
80
80
80
80
80
80
80
80
80
ENDCHAR
STARTCHAR Icircumflex
ENCODING 235
SWIDTH 242 0
DWIDTH 5 0
BBX 3 14 1 0
BITMAP
40
A0
00
40
40
40
40
40
40
40
40
40
40
40
ENDCHAR
STARTCHAR Idieresis
ENCODING 236
SWIDTH 242 0
DWIDTH 5 0
BBX 3 13 1 0
BITMAP
A0
00
40
40
40
40
40
40
40
40
40
40
40
ENDCHAR
STARTCHAR Igrave
ENCODING 237
SWIDTH 242 0
DWIDTH 5 0
BBX 2 14 1 0
BITMAP
80
40
00
40
40
40
40
40
40
40
40
40
40
40
ENDCHAR
STARTCHAR Oacute
ENCODING 238
SWIDTH 735 0
DWIDTH 10 0
BBX 8 14 1 0
BITMAP
08
10
00
3C
42
81
81
81
81
81
81
81
42
3C
ENDCHAR
STARTCHAR Ocircumflex
ENCODING 239
SWIDTH 735 0
DWIDTH 10 0
BBX 8 14 1 0
BITMAP
10
28
00
3C
42
81
81
81
81
81
81
81
42
3C
ENDCHAR
STARTCHAR apple
ENCODING 240
SWIDTH 790 0
DWIDTH 12 0
BBX 10 12 1 0
BITMAP
0300
0600
0400
3B80
7FC0
FF80
FF00
FF00
FF80
FFC0
7FC0
3B80
ENDCHAR
STARTCHAR Ograve
ENCODING 241
SWIDTH 735 0
DWIDTH 10 0
BBX 8 14 1 0
BITMAP
10
08
00
3C
42
81
81
81
81
81
81
81
42
3C
ENDCHAR
STARTCHAR Uacute
ENCODING 242
SWIDTH 667 0
DWIDTH 10 0
BBX 8 14 1 0
BITMAP
08
10
00
81
81
81
81
81
81
81
81
81
42
3C
ENDCHAR
STARTCHAR Ucircumflex
ENCODING 243
SWIDTH 667 0
DWIDTH 10 0
BBX 8 14 1 0
BITMAP
10
28
00
81
81
81
81
81
81
81
81
81
42
3C
ENDCHAR
STARTCHAR Ugrave
ENCODING 244
SWIDTH 667 0
DWIDTH 10 0
BBX 8 14 1 0
BITMAP
10
08
00
81
81
81
81
81
81
81
81
81
42
3C
ENDCHAR
STARTCHAR dotlessi
ENCODING 245
SWIDTH 235 0
DWIDTH 5 0
BBX 1 8 2 0
BITMAP
80
80
80
80
80
80
80
80
ENDCHAR
STARTCHAR circumflex
ENCODING 246
SWIDTH 591 0
DWIDTH 8 0
BBX 5 3 1 9
BITMAP
20
50
88
ENDCHAR
STARTCHAR tilde
ENCODING 247
SWIDTH 591 0
DWIDTH 8 0
BBX 6 2 1 9
BITMAP
64
98
ENDCHAR
STARTCHAR macron
ENCODING 248
SWIDTH 591 0
DWIDTH 8 0
BBX 4 1 2 9
BITMAP
F0
ENDCHAR
STARTCHAR breve
ENCODING 249
SWIDTH 591 0
DWIDTH 8 0
BBX 5 2 1 9
BITMAP
88
70
ENDCHAR
STARTCHAR dotaccent
ENCODING 250
SWIDTH 591 0
DWIDTH 8 0
BBX 1 1 3 10
BITMAP
80
ENDCHAR
STARTCHAR ring
ENCODING 251
SWIDTH 591 0
DWIDTH 8 0
BBX 3 3 2 9
BITMAP
40
A0
40
ENDCHAR
STARTCHAR cedilla
ENCODING 252
SWIDTH 591 0
DWIDTH 8 0
BBX 2 3 3 -3
BITMAP
C0
40
80
ENDCHAR
STARTCHAR hungarumlaut
ENCODING 253
SWIDTH 591 0
DWIDTH 8 0
BBX 5 3 2 9
BITMAP
28
50
A0
ENDCHAR
STARTCHAR ogonek
ENCODING 254
SWIDTH 591 0
DWIDTH 8 0
BBX 2 3 3 -3
BITMAP
80
80
40
ENDCHAR
STARTCHAR caron
ENCODING 255
SWIDTH 591 0
DWIDTH 8 0
BBX 5 3 2 9
BITMAP
88
50
20
ENDCHAR
ENDFONT
